<?xml version="1.0" encoding="UTF-8"?><svg xmlns="http://www.w3.org/2000/svg" xmlns:xlink="http://www.w3.org/1999/xlink" height="469.0" overflow="hidden" preserveAspectRatio="xMidYMid meet" version="1.0" viewBox="1.1 1.0 538.0 469.0" width="538.0" zoomAndPan="magnify"><defs><clipPath id="a"><path d="M741 -1H1281V469H741z"/></clipPath></defs><g clip-path="url(#a)" fill-rule="evenodd" transform="translate(-741 1)"><g id="change1_1"><path d="M0 0.0629921C57.0933 39.563 114.086 79.063 182.178 98.263 250.17 117.563 329.061 116.563 382.355 155.663 435.648 194.763 463.245 273.963 467.444 344.463 471.544 414.863 452.246 476.463 432.949 538.063L0 538.063Z" fill="#F6918A" transform="matrix(0 1 1 0 742 0)"/></g><g id="change2_1"><path d="M0 0.0629336C45.6451 31.6336 91.1902 63.2042 145.525 78.5899 199.859 93.9756 262.983 93.1763 305.532 124.447 348.181 155.718 370.254 218.959 373.55 275.307 376.846 331.555 361.465 380.809 345.983 430.063L0 430.063Z" fill="#F6A7A0" transform="matrix(0 1 1 0 850 0)"/></g><g id="change3_1"><path d="M0 0.0630312C34.2191 23.7777 68.5384 47.4924 109.361 58.9995 150.184 70.6067 197.61 70.0063 229.628 93.4208 261.546 116.935 278.155 164.565 280.657 206.791 283.158 249.117 271.552 286.04 259.945 323.063L0 323.063Z" fill="#F9BCB8" transform="matrix(0 1 1 0 957 0)"/></g><g id="change4_1"><path d="M0 0.0629336C22.7713 15.8483 45.6426 31.6336 72.8084 39.3265 99.9742 47.0193 131.534 46.6196 152.808 62.2052 174.081 77.8905 185.067 109.561 186.765 137.635 188.463 165.809 180.673 190.486 172.982 215.063L0 215.063Z" fill="#FCD1B5" transform="matrix(0 1 1 0 1065 0)"/></g><g id="change5_1"><path d="M0 0.0632264C11.4478 7.99265 22.8956 15.922 36.5526 19.7361 50.2097 23.6507 66.0759 23.4498 76.8209 31.2789 87.4653 39.1079 93.0888 55.067 93.8921 69.2195 94.6955 83.3719 90.8796 95.7176 86.9632 108.063L0 108.063Z" fill="#FCC09C" transform="matrix(0 1 1 0 1172 0)"/></g></g></svg>